<svg xmlns="http://www.w3.org/2000/svg" width="26" height="26" viewBox="0 0 26 26">
  <metadata><?xpacket begin="﻿" id="W5M0MpCehiHzreSzNTczkc9d"?>
<x:xmpmeta xmlns:x="adobe:ns:meta/" x:xmptk="Adobe XMP Core 5.6-c142 79.160924, 2017/07/13-01:06:39        ">
   <rdf:RDF xmlns:rdf="http://www.w3.org/1999/02/22-rdf-syntax-ns#">
      <rdf:Description rdf:about=""/>
   </rdf:RDF>
</x:xmpmeta>
                                                                                                    
                                                                                                    
                                                                                                    
                                                                                                    
                                                                                                    
                                                                                                    
                                                                                                    
                                                                                                    
                                                                                                    
                                                                                                    
                                                                                                    
                                                                                                    
                                                                                                    
                                                                                                    
                                                                                                    
                                                                                                    
                                                                                                    
                                                                                                    
                                                                                                    
                                                                                                    
                           
<?xpacket end="w"?></metadata>
<defs>
    <style>
      .cls-1 {
        fill: #444d60;
        fill-rule: evenodd;
      }
    </style>
  </defs>
  <path id="balance" class="cls-1" d="M384.148,189.45H373.716a6.727,6.727,0,0,0,.7-1.7h9.736A0.85,0.85,0,1,1,384.148,189.45Zm0-2.55h-9.571a6.257,6.257,0,0,0,0-1.7h9.571A0.85,0.85,0,1,1,384.148,186.9Zm0-2.55h-9.736a6.712,6.712,0,0,0-.7-1.7h10.432A0.85,0.85,0,1,1,384.148,184.35Zm0-2.55H373.136a6.821,6.821,0,0,0-2.019-1.7h13.031A0.85,0.85,0,1,1,384.148,181.8Zm0-2.55h-13.63a0.85,0.85,0,1,1,0-1.7h13.63A0.85,0.85,0,1,1,384.148,179.25Zm0-2.55h-13.63a0.85,0.85,0,1,1,0-1.7h13.63A0.85,0.85,0,1,1,384.148,176.7Zm-10.222,9.35a5.963,5.963,0,1,1-5.963-5.95A5.957,5.957,0,0,1,373.926,186.05Zm-3.853.647a1.8,1.8,0,0,0-.335-0.531,2.192,2.192,0,0,0-.474-0.388,5.246,5.246,0,0,0-.543-0.289c-0.184-.085-0.365-0.165-0.542-0.242A3.53,3.53,0,0,1,367.7,185a1.19,1.19,0,0,1-.335-0.3,0.639,0.639,0,0,1-.125-0.4,0.745,0.745,0,0,1,.056-0.29,0.6,0.6,0,0,1,.17-0.236,0.824,0.824,0,0,1,.285-0.153,1.285,1.285,0,0,1,.4-0.056,1.933,1.933,0,0,1,.537.071,3.074,3.074,0,0,1,.431.158c0.125,0.058.229,0.112,0.314,0.161a0.458,0.458,0,0,0,.187.074,0.133,0.133,0,0,0,.093-0.032,0.213,0.213,0,0,0,.053-0.1,1.078,1.078,0,0,0,.027-0.176c0-.071.008-0.158,0.008-0.261s0-.169-0.006-0.231a1.073,1.073,0,0,0-.018-0.154,0.461,0.461,0,0,0-.032-0.1,0.423,0.423,0,0,0-.072-0.09,0.879,0.879,0,0,0-.218-0.131,2.517,2.517,0,0,0-.378-0.143,3.475,3.475,0,0,0-.458-0.1c-0.033,0-.067,0-0.1-0.007v-0.879h-0.838v0.879h0a3.119,3.119,0,0,0-.448.092,2.122,2.122,0,0,0-.734.369,1.78,1.78,0,0,0-.5.621,2.163,2.163,0,0,0-.056,1.606,1.821,1.821,0,0,0,.332.534,2.2,2.2,0,0,0,.466.387,4.894,4.894,0,0,0,.538.29q0.276,0.127.537,0.241a3.528,3.528,0,0,1,.465.244,1.257,1.257,0,0,1,.333.3,0.64,0.64,0,0,1,.128.4,0.88,0.88,0,0,1-.075.368,0.731,0.731,0,0,1-.216.276,1.015,1.015,0,0,1-.343.173,1.572,1.572,0,0,1-.458.061,2.421,2.421,0,0,1-.683-0.087,3.208,3.208,0,0,1-.509-0.193,3.892,3.892,0,0,1-.348-0.194,0.448,0.448,0,0,0-.21-0.087,0.152,0.152,0,0,0-.094.029,0.192,0.192,0,0,0-.063.1,0.806,0.806,0,0,0-.035.181c-0.007.075-.011,0.167-0.011,0.277a1.78,1.78,0,0,0,.03.375,0.393,0.393,0,0,0,.1.2,1.186,1.186,0,0,0,.226.158,2.481,2.481,0,0,0,.392.171,3.733,3.733,0,0,0,.54.139,3.531,3.531,0,0,0,.662.058l0.031,0v0.819h0.838v-0.929c0.04-.01.082-0.014,0.121-0.026a2.386,2.386,0,0,0,.809-0.411,1.975,1.975,0,0,0,.549-0.683,2.126,2.126,0,0,0,.2-0.95A1.855,1.855,0,0,0,370.073,186.7Zm3.063,3.6h11.012a0.85,0.85,0,1,1,0,1.7H371.117A6.836,6.836,0,0,0,373.136,190.3Z" transform="translate(-360.5 -170.5)"/>
</svg>
